PathFileType	4	(X/Y/Z)	./resultDataOpenSim/trcMotMarkerGrf/sub09/qtm-03-08.trc
DataRate	CameraRate	NumFrames	NumMarkers	Units	OrigDataRate	OrigDataStartFrame	OrigNumFrames
250.000000	250.000000	14	24	m	250.000000	122	485
Frame#	Time	L.Toe.Tip			R.Toe.Tip			L.Ankle.Lat			R.Ankle.Lat			L.Ankle.Med			R.Ankle.Med			L.Heel			R.Heel			L.Knee.Lat			R.Knee.Lat			L.Knee.Med			R.Knee.Med			L.Thigh.Upper			R.Thigh.Upper			L.ASIS			R.ASIS			V.Sacral			L.Acromium			R.Acromium			C7			L.Elbow			R.Elbow			L.Wrist.Lat			R.Wrist.Lat
		X1	Y1	Z1	X2	Y2	Z2	X3	Y3	Z3	X4	Y4	Z4	X5	Y5	Z5	X6	Y6	Z6	X7	Y7	Z7	X8	Y8	Z8	X9	Y9	Z9	X10	Y10	Z10	X11	Y11	Z11	X12	Y12	Z12	X13	Y13	Z13	X14	Y14	Z14	X15	Y15	Z15	X16	Y16	Z16	X17	Y17	Z17	X18	Y18	Z18	X19	Y19	Z19	X20	Y20	Z20	X21	Y21	Z21	X22	Y22	Z22	X23	Y23	Z23	X24	Y24	Z24

122	0.484	-0.33224342	0.084491874	0.0048581446	-0.63562874	0.040247508	0.10993206	-0.4788253	0.10738818	-0.029359352	-0.78094303	0.056594197	0.14164681	-0.45606639	0.12535007	0.064808943	-0.77059209	0.092197182	0.049003164	-0.5463577	0.065323971	0.021667477	-0.85085651	0.034635214	0.092953737	-0.41857469	0.52071078	-0.074234108	-0.6306698	0.48967372	0.19535535	-0.41870526	0.51855971	0.052117441	-0.65350651	0.48096443	0.06844372	-0.61241333	0.89277418	-0.11925469	-0.65425428	0.8979123	0.25149962	-0.54593948	0.97683516	-0.052354486	-0.55168085	0.98081382	0.1861738	-0.7143981	1.0390463	0.055626852	-0.54821558	1.4241351	-0.1108284	-0.56796098	1.4441924	0.21788364	-0.62322544	1.4847721	0.051350838	-0.7146642	1.0965539	-0.15106948	-0.7038733	1.1043479	0.31742271	-0.62275981	0.85497458	-0.20102575	-0.51386701	0.90025069	0.32179642
123	0.488	-0.31354875	0.085198297	0.0067262863	-0.63560359	0.040176026	0.10995763	-0.46054773	0.1047327	-0.028600955	-0.78082923	0.056567541	0.1416476	-0.43874036	0.12359103	0.065545772	-0.77039117	0.092229924	0.049008874	-0.52727588	0.061351254	0.021843538	-0.85080893	0.034815371	0.092931304	-0.41224	0.51987519	-0.074253974	-0.62830695	0.48891799	0.19551767	-0.41294891	0.51769418	0.051942927	-0.65079519	0.48034519	0.068717132	-0.60639694	0.89180701	-0.11912123	-0.64886833	0.89718001	0.25165175	-0.53978431	0.9759481	-0.052102326	-0.54601659	0.97989557	0.18644203	-0.70848462	1.0381728	0.055817417	-0.54240092	1.4232657	-0.11079828	-0.56204752	1.4434295	0.21794093	-0.61735378	1.4839184	0.051445166	-0.7096488	1.0962563	-0.15089953	-0.69764771	1.1034493	0.31773757	-0.61914268	0.85435491	-0.20150796	-0.50695559	0.89995864	0.32166471
124	0.492	-0.29507904	0.08601003	0.0085790194	-0.6355563	0.040133618	0.10999697	-0.44239776	0.1023129	-0.027894735	-0.78070993	0.056521369	0.14162465	-0.42153304	0.12198185	0.066209327	-0.7701747	0.092263201	0.048995622	-0.50844493	0.057709871	0.02167476	-0.85076687	0.034991881	0.092887073	-0.40592201	0.51885123	-0.074251124	-0.62583076	0.48812751	0.19569916	-0.40718366	0.51666533	0.051853391	-0.64817081	0.47966287	0.068904253	-0.60035858	0.8907295	-0.11899071	-0.64345236	0.89641462	0.25181208	-0.53361445	0.97497775	-0.051846969	-0.54031589	0.97894183	0.18669968	-0.70258904	1.0372129	0.056116635	-0.53657779	1.4223283	-0.11077584	-0.55614361	1.4425836	0.21800284	-0.6115322	1.4830159	0.051593628	-0.70462571	1.0958864	-0.15086601	-0.69140312	1.1024588	0.31802823	-0.61542224	0.85367993	-0.20200165	-0.50004281	0.89956668	0.32152898
125	0.496	-0.2768668	0.086935218	0.010345696	-0.63547335	0.04013244	0.11006516	-0.42446243	0.10010309	-0.027260009	-0.78058488	0.056470297	0.14157359	-0.40445686	0.12053032	0.066812442	-0.76994953	0.092297068	0.048958419	-0.48977123	0.054297124	0.021561952	-0.85073171	0.035165969	0.092818848	-0.39949204	0.51755016	-0.074090472	-0.62324539	0.48726849	0.19588287	-0.40128969	0.51548084	0.051903298	-0.64563197	0.47891659	0.069014427	-0.59431015	0.88954547	-0.11885978	-0.63800151	0.89561412	0.25197507	-0.52743555	0.97392502	-0.051598586	-0.53458131	0.9779538	0.18694781	-0.69670872	1.0362202	0.056398242	-0.53074092	1.421323	-0.11076017	-0.55023793	1.4416521	0.21806321	-0.60573953	1.4820576	0.051785185	-0.69958041	1.0954356	-0.15088625	-0.68514022	1.1013781	0.31829411	-0.61166964	0.85293044	-0.20253741	-0.49313026	0.89907453	0.32138184
126	0.5	-0.25893752	0.087985649	0.011966598	-0.63535912	0.040158588	0.1101611	-0.40680975	0.098085559	-0.02670696	-0.78050374	0.056505904	0.14149806	-0.38753611	0.1192553	0.067375726	-0.76971598	0.092330809	0.048900045	-0.47118448	0.051052987	0.021750354	-0.85070084	0.035339596	0.092726226	-0.39285372	0.51589083	-0.073634795	-0.62060425	0.48633192	0.19606474	-0.39527713	0.51414258	0.052069062	-0.64310939	0.478127	0.069078119	-0.58824843	0.88826371	-0.11874018	-0.63251287	0.89476763	0.25213144	-0.52124561	0.97279511	-0.051361064	-0.52881859	0.97693002	0.18718948	-0.69075614	1.0351822	0.056581025	-0.52488737	1.4202528	-0.11075361	-0.54430619	1.4406325	0.21811193	-0.59988286	1.4810204	0.051923833	-0.69450877	1.0948999	-0.15090463	-0.67886369	1.1002134	0.31854084	-0.60791381	0.85209696	-0.20312218	-0.48622529	0.89848796	0.32122588
127	0.504	-0.24131826	0.089171525	0.013400113	-0.63524124	0.040172018	0.11025926	-0.38945593	0.096263443	-0.026228901	-0.7805772	0.05681718	0.1413961	-0.37079592	0.1181776	0.067908185	-0.76947108	0.092364887	0.048827861	-0.45271984	0.047986181	0.022171228	-0.8506692	0.035513234	0.092609892	-0.38613912	0.51396567	-0.072967571	-0.61794312	0.48533898	0.19625077	-0.38918007	0.51265341	0.052309302	-0.64050831	0.4773383	0.069129822	-0.582166	0.88689392	-0.11863753	-0.62698301	0.89386966	0.25227595	-0.5150373	0.97159437	-0.051127221	-0.52302861	0.97586901	0.18742792	-0.68465928	1.0340556	0.056632615	-0.51901552	1.4191176	-0.11075878	-0.53833173	1.4395274	0.21814569	-0.5938571	1.4798785	0.051886676	-0.68941501	1.0942828	-0.15090914	-0.67257871	1.098972	0.31877728	-0.60412916	0.85118088	-0.20373868	-0.47932671	0.89781385	0.3210682
128	0.508	-0.22403931	0.090506377	0.014617999	-0.63515442	0.040127561	0.11032222	-0.37238218	0.094648612	-0.025802172	-0.78088812	0.057539856	0.14126536	-0.35426098	0.11729242	0.068408677	-0.76922003	0.092400119	0.048746919	-0.43449292	0.045146215	0.022626812	-0.85063315	0.035687815	0.092468268	-0.37965181	0.51205037	-0.072392411	-0.61527834	0.48433001	0.19643566	-0.3830252	0.51102346	0.052598659	-0.63772296	0.47660876	0.069203465	-0.57606372	0.88544301	-0.11853634	-0.62141298	0.89292867	0.25241445	-0.50880154	0.97032467	-0.050892719	-0.51720778	0.97477257	0.18766355	-0.67843673	1.0327925	0.056581219	-0.51312645	1.4179162	-0.11077331	-0.53232931	1.4383507	0.21817085	-0.58767282	1.4786384	0.051679359	-0.68429058	1.0935917	-0.15091062	-0.66628418	1.097657	0.31900804	-0.60028066	0.85018778	-0.20436626	-0.47242365	0.89705516	0.32091189
129	0.512	-0.20713168	0.092006358	0.01560312	-0.6351136	0.040008433	0.1103263	-0.35558694	0.093244826	-0.025406207	-0.78133198	0.058492723	0.14112169	-0.33799621	0.11654671	0.068879913	-0.76898377	0.092434523	0.048659554	-0.4165979	0.042558219	0.022998679	-0.85059216	0.035867696	0.092297891	-0.37349248	0.51030713	-0.072068393	-0.61261355	0.48333893	0.19661283	-0.37684636	0.50926963	0.052929173	-0.63476889	0.4759449	0.069277771	-0.56993355	0.8839153	-0.11842075	-0.61580761	0.89195387	0.25255834	-0.50253318	0.96898776	-0.050662769	-0.51135232	0.97364518	0.18789351	-0.67219315	1.0313669	0.056493183	-0.50722287	1.4166504	-0.11078838	-0.52632795	1.4371192	0.21819853	-0.58147478	1.4773462	0.051467513	-0.67910145	1.0928263	-0.15093528	-0.65997562	1.0962672	0.31923201	-0.59635493	0.84912738	-0.20499509	-0.46552357	0.89620853	0.32075772
130	0.516	-0.19062101	0.093679118	0.016356008	-0.63510659	0.039837229	0.11027657	-0.33909517	0.092048494	-0.025037644	-0.78163563	0.059232102	0.14100779	-0.32210353	0.11587945	0.069330889	-0.76878422	0.092461322	0.048565069	-0.39906744	0.04020123	0.023279345	-0.85054714	0.036058257	0.092097824	-0.36748378	0.50862553	-0.071859791	-0.60992843	0.48237049	0.19678543	-0.3706745	0.50740945	0.053304176	-0.63180901	0.47528194	0.069281318	-0.56375829	0.88231832	-0.1182827	-0.61016867	0.89093829	0.2527117	-0.49623732	0.96759281	-0.050443177	-0.50545992	0.97248637	0.18811529	-0.66604745	1.0297974	0.056444156	-0.50130443	1.4153208	-0.11079852	-0.52034358	1.4358352	0.21823735	-0.57539847	1.4760457	0.051403061	-0.67379562	1.0919739	-0.1510195	-0.65365202	1.0948032	0.31944617	-0.59235511	0.84801193	-0.20562903	-0.45867935	0.89526227	0.32059717
131	0.52	-0.17451595	0.095512884	0.016898074	-0.63510844	0.039653907	0.11020364	-0.3229298	0.091048926	-0.024706775	-0.781587	0.059449531	0.14098507	-0.30663296	0.11527569	0.069757959	-0.76860876	0.09247311	0.048456799	-0.38190454	0.038036549	0.023499013	-0.85049894	0.036262283	0.091872128	-0.36145672	0.50684779	-0.071605077	-0.60719369	0.48139761	0.19695327	-0.36452593	0.50544764	0.053730484	-0.62894417	0.47456343	0.069195946	-0.55752373	0.88066609	-0.11811851	-0.60449599	0.88986531	0.25286875	-0.48992191	0.96615177	-0.05023281	-0.49953682	0.97129041	0.18833167	-0.66004394	1.0281364	0.05648478	-0.49536979	1.4139262	-0.11080868	-0.5143639	1.4344869	0.21828618	-0.56945983	1.474743	0.051490165	-0.66835256	1.0910241	-0.15118038	-0.64731553	1.0932725	0.31964759	-0.58828064	0.84685365	-0.20627827	-0.4519887	0.89419452	0.32040729
132	0.524	-0.15881115	0.097471874	0.017268433	-0.6350967	0.039489446	0.11014336	-0.30710964	0.090223391	-0.024433362	-0.78118498	0.059182308	0.14109032	-0.29154577	0.11474938	0.070134813	-0.76841276	0.092472425	0.048330085	-0.36510839	0.036033274	0.023666179	-0.85044744	0.036482179	0.091628595	-0.35535741	0.50495465	-0.071280877	-0.60439987	0.48038419	0.19710076	-0.35840054	0.50337749	0.054215072	-0.62609234	0.47379665	0.069087173	-0.5512196	0.8789678	-0.11793002	-0.59878987	0.88872555	0.25302072	-0.4835865	0.96467071	-0.050023271	-0.49359563	0.97005667	0.18854826	-0.65411674	1.0264354	0.056611512	-0.48941757	1.4124665	-0.11082348	-0.50836391	1.4330639	0.21833357	-0.56358448	1.4734101	0.05163691	-0.66283298	1.0899844	-0.15138732	-0.64096814	1.0916825	0.3198334	-0.58411504	0.8456582	-0.20694154	-0.44551892	0.8929904	0.3201738
133	0.528	-0.14351459	0.099499402	0.017515544	-0.63506315	0.039352312	0.11011068	-0.29166176	0.089542876	-0.024243115	-0.78063721	0.058735626	0.14126071	-0.27678588	0.11430106	0.070435811	-0.76817645	0.092474948	0.04819111	-0.3486834	0.034173747	0.023756626	-0.85039174	0.036724924	0.091377392	-0.34915573	0.50300577	-0.070916608	-0.6015573	0.47932323	0.19721037	-0.35227294	0.50120279	0.054768765	-0.6231109	0.4730252	0.069031747	-0.5448439	0.87721356	-0.11772479	-0.59304945	0.88752016	0.25316028	-0.4772223	0.96314886	-0.049808135	-0.4876324	0.96879066	0.18876411	-0.64814015	1.0247209	0.056778071	-0.48344419	1.4109432	-0.1108377	-0.50234097	1.4315641	0.21836862	-0.5576895	1.4720135	0.051763344	-0.657327	1.0888731	-0.15159138	-0.63461158	1.0900324	0.32000135	-0.57983775	0.84440905	-0.20759756	-0.43916864	0.89168053	0.31992033
134	0.532	-0.12865488	0.10153194	0.017679821	-0.63501576	0.039232952	0.11009756	-0.27661624	0.088978848	-0.024155998	-0.78024635	0.058495718	0.1413379	-0.26234295	0.11390922	0.070647416	-0.76792751	0.092499154	0.048045336	-0.33264538	0.032449535	0.0237392	-0.85033143	0.037004036	0.091130825	-0.34282122	0.50104989	-0.070535334	-0.59867003	0.47824625	0.1972896	-0.34609679	0.49894638	0.055403505	-0.61993368	0.47228103	0.069071278	-0.53840778	0.87538272	-0.11750779	-0.58727431	0.88625429	0.2532826	-0.47082077	0.96158347	-0.049593062	-0.48162538	0.9674918	0.18897227	-0.64204106	1.0229785	0.056928425	-0.47744983	1.4093604	-0.11084574	-0.49630955	1.4299945	0.21839132	-0.55173525	1.4705403	0.051842855	-0.65185517	1.0876997	-0.15177788	-0.62824651	1.0883179	0.32015025	-0.57545411	0.8430725	-0.20822778	-0.43267302	0.89034183	0.31970215
135	0.536	-0.11424896	0.10351924	0.017779001	-0.63496619	0.039120191	0.11009189	-0.26199423	0.088501504	-0.024175449	-0.78017408	0.058655865	0.14121673	-0.24825305	0.1135327	0.070744231	-0.76769735	0.0925556	0.047886568	-0.31701959	0.030854682	0.023601853	-0.85026774	0.037333524	0.090899052	-0.33636737	0.49910483	-0.070180462	-0.59572059	0.4771818	0.19736639	-0.33986084	0.4966305	0.056102131	-0.61658635	0.47155759	0.069201439	-0.5319233	0.87346995	-0.11727268	-0.58146751	0.8849327	0.25338727	-0.46438292	0.95997418	-0.049389734	-0.47556241	0.96615137	0.18917077	-0.63585496	1.0211518	0.057014453	-0.47144204	1.4077251	-0.11085126	-0.49027191	1.4283703	0.2184105	-0.54572605	1.4690008	0.051883014	-0.64636701	1.0864603	-0.15196852	-0.62187284	1.0865411	0.32028059	-0.57100558	0.8416332	-0.20884491	-0.42583988	0.88903306	0.31956058
